<mxfile host="Electron" modified="2024-01-24T06:40:42.822Z" agent="Mozilla/5.0 (Windows NT 10.0; Win64; x64) AppleWebKit/537.36 (KHTML, like Gecko) draw.io/22.1.11 Chrome/114.0.5735.289 Electron/25.9.8 Safari/537.36" etag="GbTEB_GgH9IzCcc2sgRr" version="22.1.11" type="device">
  <diagram name="第 1 页" id="8vyV_81mK0_P59RkO-qy">
    <mxGraphModel dx="1098" dy="828" grid="1" gridSize="10" guides="1" tooltips="1" connect="1" arrows="1" fold="1" page="1" pageScale="1" pageWidth="827" pageHeight="1169" math="0" shadow="0">
      <root>
        <mxCell id="0" />
        <mxCell id="1" parent="0" />
        <mxCell id="GajuMI54rTQRxDon66kV-1" value="" style="rounded=0;whiteSpace=wrap;html=1;container=1;" parent="1" vertex="1">
          <mxGeometry x="80" y="250" width="690" height="590" as="geometry" />
        </mxCell>
        <mxCell id="GajuMI54rTQRxDon66kV-2" value="ICharacterBuilder" style="swimlane;fontStyle=1;align=center;verticalAlign=top;childLayout=stackLayout;horizontal=1;startSize=26;horizontalStack=0;resizeParent=1;resizeParentMax=0;resizeLast=0;collapsible=1;marginBottom=0;whiteSpace=wrap;html=1;" parent="GajuMI54rTQRxDon66kV-1" vertex="1">
          <mxGeometry x="360" y="20" width="160" height="247.58571810217077" as="geometry" />
        </mxCell>
        <mxCell id="GajuMI54rTQRxDon66kV-4" value="" style="line;strokeWidth=1;fillColor=none;align=left;verticalAlign=middle;spacingTop=-1;spacingLeft=3;spacingRight=3;rotatable=0;labelPosition=right;points=[];portConstraint=eastwest;strokeColor=inherit;" parent="GajuMI54rTQRxDon66kV-2" vertex="1">
          <mxGeometry y="26" width="160" height="11.585718102170782" as="geometry" />
        </mxCell>
        <mxCell id="GajuMI54rTQRxDon66kV-5" value="+SetBuildParam()" style="text;strokeColor=none;fillColor=none;align=left;verticalAlign=top;spacingLeft=4;spacingRight=4;overflow=hidden;rotatable=0;points=[[0,0.5],[1,0.5]];portConstraint=eastwest;whiteSpace=wrap;html=1;" parent="GajuMI54rTQRxDon66kV-2" vertex="1">
          <mxGeometry y="37.58571810217078" width="160" height="35" as="geometry" />
        </mxCell>
        <mxCell id="GajuMI54rTQRxDon66kV-6" value="+LoadAsset()" style="text;html=1;strokeColor=none;fillColor=none;align=left;verticalAlign=middle;whiteSpace=wrap;rounded=0;spacingLeft=4;spacingRight=4;" parent="GajuMI54rTQRxDon66kV-2" vertex="1">
          <mxGeometry y="72.58571810217077" width="160" height="35" as="geometry" />
        </mxCell>
        <mxCell id="GajuMI54rTQRxDon66kV-7" value="+AddOnClickScript()" style="text;html=1;strokeColor=none;fillColor=none;align=left;verticalAlign=middle;whiteSpace=wrap;rounded=0;spacingLeft=4;spacingRight=4;" parent="GajuMI54rTQRxDon66kV-2" vertex="1">
          <mxGeometry y="107.58571810217077" width="160" height="35" as="geometry" />
        </mxCell>
        <mxCell id="GajuMI54rTQRxDon66kV-8" value="+AddWeapon()" style="text;html=1;strokeColor=none;fillColor=none;align=left;verticalAlign=middle;whiteSpace=wrap;rounded=0;spacingLeft=4;spacingRight=4;" parent="GajuMI54rTQRxDon66kV-2" vertex="1">
          <mxGeometry y="142.58571810217077" width="160" height="35" as="geometry" />
        </mxCell>
        <mxCell id="GajuMI54rTQRxDon66kV-9" value="+SetCharacterValue()" style="text;html=1;strokeColor=none;fillColor=none;align=left;verticalAlign=middle;whiteSpace=wrap;rounded=0;spacingRight=4;spacingLeft=4;" parent="GajuMI54rTQRxDon66kV-2" vertex="1">
          <mxGeometry y="177.58571810217077" width="160" height="35" as="geometry" />
        </mxCell>
        <mxCell id="GajuMI54rTQRxDon66kV-10" value="+AddCharacterSystem()" style="text;html=1;strokeColor=none;fillColor=none;align=left;verticalAlign=middle;whiteSpace=wrap;rounded=0;spacingRight=4;spacingLeft=4;" parent="GajuMI54rTQRxDon66kV-2" vertex="1">
          <mxGeometry y="212.58571810217077" width="160" height="35" as="geometry" />
        </mxCell>
        <mxCell id="GajuMI54rTQRxDon66kV-28" style="edgeStyle=none;rounded=0;orthogonalLoop=1;jettySize=auto;html=1;exitX=0.5;exitY=0;exitDx=0;exitDy=0;entryX=0.25;entryY=1;entryDx=0;entryDy=0;endArrow=block;endFill=0;" parent="GajuMI54rTQRxDon66kV-1" source="GajuMI54rTQRxDon66kV-11" target="GajuMI54rTQRxDon66kV-10" edge="1">
          <mxGeometry relative="1" as="geometry" />
        </mxCell>
        <mxCell id="GajuMI54rTQRxDon66kV-11" value="SoldierBuilder" style="swimlane;fontStyle=1;align=center;verticalAlign=top;childLayout=stackLayout;horizontal=1;startSize=26;horizontalStack=0;resizeParent=1;resizeParentMax=0;resizeLast=0;collapsible=1;marginBottom=0;whiteSpace=wrap;html=1;" parent="GajuMI54rTQRxDon66kV-1" vertex="1">
          <mxGeometry x="230" y="311.09" width="160" height="247.58571810217077" as="geometry" />
        </mxCell>
        <mxCell id="GajuMI54rTQRxDon66kV-12" value="" style="line;strokeWidth=1;fillColor=none;align=left;verticalAlign=middle;spacingTop=-1;spacingLeft=3;spacingRight=3;rotatable=0;labelPosition=right;points=[];portConstraint=eastwest;strokeColor=inherit;" parent="GajuMI54rTQRxDon66kV-11" vertex="1">
          <mxGeometry y="26" width="160" height="11.585718102170782" as="geometry" />
        </mxCell>
        <mxCell id="GajuMI54rTQRxDon66kV-13" value="+SetBuildParam()" style="text;strokeColor=none;fillColor=none;align=left;verticalAlign=top;spacingLeft=4;spacingRight=4;overflow=hidden;rotatable=0;points=[[0,0.5],[1,0.5]];portConstraint=eastwest;whiteSpace=wrap;html=1;" parent="GajuMI54rTQRxDon66kV-11" vertex="1">
          <mxGeometry y="37.58571810217078" width="160" height="35" as="geometry" />
        </mxCell>
        <mxCell id="GajuMI54rTQRxDon66kV-14" value="+LoadAsset()" style="text;html=1;strokeColor=none;fillColor=none;align=left;verticalAlign=middle;whiteSpace=wrap;rounded=0;spacingLeft=4;spacingRight=4;" parent="GajuMI54rTQRxDon66kV-11" vertex="1">
          <mxGeometry y="72.58571810217077" width="160" height="35" as="geometry" />
        </mxCell>
        <mxCell id="GajuMI54rTQRxDon66kV-15" value="+AddOnClickScript()" style="text;html=1;strokeColor=none;fillColor=none;align=left;verticalAlign=middle;whiteSpace=wrap;rounded=0;spacingLeft=4;spacingRight=4;" parent="GajuMI54rTQRxDon66kV-11" vertex="1">
          <mxGeometry y="107.58571810217077" width="160" height="35" as="geometry" />
        </mxCell>
        <mxCell id="GajuMI54rTQRxDon66kV-16" value="+AddWeapon()" style="text;html=1;strokeColor=none;fillColor=none;align=left;verticalAlign=middle;whiteSpace=wrap;rounded=0;spacingLeft=4;spacingRight=4;" parent="GajuMI54rTQRxDon66kV-11" vertex="1">
          <mxGeometry y="142.58571810217077" width="160" height="35" as="geometry" />
        </mxCell>
        <mxCell id="GajuMI54rTQRxDon66kV-17" value="+SetCharacterValue()" style="text;html=1;strokeColor=none;fillColor=none;align=left;verticalAlign=middle;whiteSpace=wrap;rounded=0;spacingRight=4;spacingLeft=4;" parent="GajuMI54rTQRxDon66kV-11" vertex="1">
          <mxGeometry y="177.58571810217077" width="160" height="35" as="geometry" />
        </mxCell>
        <mxCell id="GajuMI54rTQRxDon66kV-18" value="+AddCharacterSystem()" style="text;html=1;strokeColor=none;fillColor=none;align=left;verticalAlign=middle;whiteSpace=wrap;rounded=0;spacingRight=4;spacingLeft=4;" parent="GajuMI54rTQRxDon66kV-11" vertex="1">
          <mxGeometry y="212.58571810217077" width="160" height="35" as="geometry" />
        </mxCell>
        <mxCell id="GajuMI54rTQRxDon66kV-29" style="edgeStyle=none;rounded=0;orthogonalLoop=1;jettySize=auto;html=1;exitX=0.5;exitY=0;exitDx=0;exitDy=0;entryX=0.75;entryY=1;entryDx=0;entryDy=0;endArrow=block;endFill=0;" parent="GajuMI54rTQRxDon66kV-1" source="GajuMI54rTQRxDon66kV-19" target="GajuMI54rTQRxDon66kV-10" edge="1">
          <mxGeometry relative="1" as="geometry" />
        </mxCell>
        <mxCell id="GajuMI54rTQRxDon66kV-19" value="EnemyBuilder" style="swimlane;fontStyle=1;align=center;verticalAlign=top;childLayout=stackLayout;horizontal=1;startSize=26;horizontalStack=0;resizeParent=1;resizeParentMax=0;resizeLast=0;collapsible=1;marginBottom=0;whiteSpace=wrap;html=1;" parent="GajuMI54rTQRxDon66kV-1" vertex="1">
          <mxGeometry x="500" y="311.0946640147978" width="160" height="247.58571810217077" as="geometry" />
        </mxCell>
        <mxCell id="GajuMI54rTQRxDon66kV-20" value="" style="line;strokeWidth=1;fillColor=none;align=left;verticalAlign=middle;spacingTop=-1;spacingLeft=3;spacingRight=3;rotatable=0;labelPosition=right;points=[];portConstraint=eastwest;strokeColor=inherit;" parent="GajuMI54rTQRxDon66kV-19" vertex="1">
          <mxGeometry y="26" width="160" height="11.585718102170782" as="geometry" />
        </mxCell>
        <mxCell id="GajuMI54rTQRxDon66kV-21" value="+SetBuildParam()" style="text;strokeColor=none;fillColor=none;align=left;verticalAlign=top;spacingLeft=4;spacingRight=4;overflow=hidden;rotatable=0;points=[[0,0.5],[1,0.5]];portConstraint=eastwest;whiteSpace=wrap;html=1;" parent="GajuMI54rTQRxDon66kV-19" vertex="1">
          <mxGeometry y="37.58571810217078" width="160" height="35" as="geometry" />
        </mxCell>
        <mxCell id="GajuMI54rTQRxDon66kV-22" value="+LoadAsset()" style="text;html=1;strokeColor=none;fillColor=none;align=left;verticalAlign=middle;whiteSpace=wrap;rounded=0;spacingLeft=4;spacingRight=4;" parent="GajuMI54rTQRxDon66kV-19" vertex="1">
          <mxGeometry y="72.58571810217077" width="160" height="35" as="geometry" />
        </mxCell>
        <mxCell id="GajuMI54rTQRxDon66kV-23" value="+AddOnClickScript()" style="text;html=1;strokeColor=none;fillColor=none;align=left;verticalAlign=middle;whiteSpace=wrap;rounded=0;spacingLeft=4;spacingRight=4;" parent="GajuMI54rTQRxDon66kV-19" vertex="1">
          <mxGeometry y="107.58571810217077" width="160" height="35" as="geometry" />
        </mxCell>
        <mxCell id="GajuMI54rTQRxDon66kV-24" value="+AddWeapon()" style="text;html=1;strokeColor=none;fillColor=none;align=left;verticalAlign=middle;whiteSpace=wrap;rounded=0;spacingLeft=4;spacingRight=4;" parent="GajuMI54rTQRxDon66kV-19" vertex="1">
          <mxGeometry y="142.58571810217077" width="160" height="35" as="geometry" />
        </mxCell>
        <mxCell id="GajuMI54rTQRxDon66kV-25" value="+SetCharacterValue()" style="text;html=1;strokeColor=none;fillColor=none;align=left;verticalAlign=middle;whiteSpace=wrap;rounded=0;spacingRight=4;spacingLeft=4;" parent="GajuMI54rTQRxDon66kV-19" vertex="1">
          <mxGeometry y="177.58571810217077" width="160" height="35" as="geometry" />
        </mxCell>
        <mxCell id="GajuMI54rTQRxDon66kV-26" value="+AddCharacterSystem()" style="text;html=1;strokeColor=none;fillColor=none;align=left;verticalAlign=middle;whiteSpace=wrap;rounded=0;spacingRight=4;spacingLeft=4;" parent="GajuMI54rTQRxDon66kV-19" vertex="1">
          <mxGeometry y="212.58571810217077" width="160" height="35" as="geometry" />
        </mxCell>
        <mxCell id="GajuMI54rTQRxDon66kV-30" value="CharacterBuilderSystem" style="swimlane;fontStyle=1;align=center;verticalAlign=top;childLayout=stackLayout;horizontal=1;startSize=26;horizontalStack=0;resizeParent=1;resizeParentMax=0;resizeLast=0;collapsible=1;marginBottom=0;whiteSpace=wrap;html=1;" parent="GajuMI54rTQRxDon66kV-1" vertex="1">
          <mxGeometry x="30" y="113.78999999999999" width="230" height="60" as="geometry" />
        </mxCell>
        <mxCell id="GajuMI54rTQRxDon66kV-32" value="" style="line;strokeWidth=1;fillColor=none;align=left;verticalAlign=middle;spacingTop=-1;spacingLeft=3;spacingRight=3;rotatable=0;labelPosition=right;points=[];portConstraint=eastwest;strokeColor=inherit;" parent="GajuMI54rTQRxDon66kV-30" vertex="1">
          <mxGeometry y="26" width="230" height="8" as="geometry" />
        </mxCell>
        <mxCell id="GajuMI54rTQRxDon66kV-33" value="+Construct(ICharacterBuilder builder)" style="text;strokeColor=none;fillColor=none;align=left;verticalAlign=top;spacingLeft=4;spacingRight=4;overflow=hidden;rotatable=0;points=[[0,0.5],[1,0.5]];portConstraint=eastwest;whiteSpace=wrap;html=1;" parent="GajuMI54rTQRxDon66kV-30" vertex="1">
          <mxGeometry y="34" width="230" height="26" as="geometry" />
        </mxCell>
        <mxCell id="GajuMI54rTQRxDon66kV-48" value="Builder Pattern" style="text;html=1;strokeColor=none;fillColor=none;align=center;verticalAlign=middle;whiteSpace=wrap;rounded=0;" parent="GajuMI54rTQRxDon66kV-1" vertex="1">
          <mxGeometry x="590" y="20" width="90" height="30" as="geometry" />
        </mxCell>
        <mxCell id="GajuMI54rTQRxDon66kV-34" value="ISoldier" style="swimlane;fontStyle=1;align=center;verticalAlign=top;childLayout=stackLayout;horizontal=1;startSize=26;horizontalStack=0;resizeParent=1;resizeParentMax=0;resizeLast=0;collapsible=1;marginBottom=0;whiteSpace=wrap;html=1;" parent="1" vertex="1">
          <mxGeometry x="210" y="880" width="160" height="34" as="geometry" />
        </mxCell>
        <mxCell id="GajuMI54rTQRxDon66kV-36" value="" style="line;strokeWidth=1;fillColor=none;align=left;verticalAlign=middle;spacingTop=-1;spacingLeft=3;spacingRight=3;rotatable=0;labelPosition=right;points=[];portConstraint=eastwest;strokeColor=inherit;" parent="GajuMI54rTQRxDon66kV-34" vertex="1">
          <mxGeometry y="26" width="160" height="8" as="geometry" />
        </mxCell>
        <mxCell id="GajuMI54rTQRxDon66kV-38" value="IEnemy" style="swimlane;fontStyle=1;align=center;verticalAlign=top;childLayout=stackLayout;horizontal=1;startSize=26;horizontalStack=0;resizeParent=1;resizeParentMax=0;resizeLast=0;collapsible=1;marginBottom=0;whiteSpace=wrap;html=1;" parent="1" vertex="1">
          <mxGeometry x="667" y="880" width="160" height="34" as="geometry" />
        </mxCell>
        <mxCell id="GajuMI54rTQRxDon66kV-39" value="" style="line;strokeWidth=1;fillColor=none;align=left;verticalAlign=middle;spacingTop=-1;spacingLeft=3;spacingRight=3;rotatable=0;labelPosition=right;points=[];portConstraint=eastwest;strokeColor=inherit;" parent="GajuMI54rTQRxDon66kV-38" vertex="1">
          <mxGeometry y="26" width="160" height="8" as="geometry" />
        </mxCell>
        <mxCell id="GajuMI54rTQRxDon66kV-40" style="edgeStyle=none;rounded=0;orthogonalLoop=1;jettySize=auto;html=1;exitX=0.25;exitY=1;exitDx=0;exitDy=0;entryX=0.5;entryY=0;entryDx=0;entryDy=0;dashed=1;endArrow=open;endFill=0;" parent="1" source="GajuMI54rTQRxDon66kV-18" target="GajuMI54rTQRxDon66kV-34" edge="1">
          <mxGeometry relative="1" as="geometry" />
        </mxCell>
        <mxCell id="GajuMI54rTQRxDon66kV-41" style="edgeStyle=none;rounded=0;orthogonalLoop=1;jettySize=auto;html=1;exitX=0.5;exitY=1;exitDx=0;exitDy=0;entryX=0.5;entryY=0;entryDx=0;entryDy=0;dashed=1;endArrow=open;endFill=0;" parent="1" source="GajuMI54rTQRxDon66kV-26" target="GajuMI54rTQRxDon66kV-38" edge="1">
          <mxGeometry relative="1" as="geometry" />
        </mxCell>
        <mxCell id="GajuMI54rTQRxDon66kV-42" value="CharacterFactory" style="swimlane;fontStyle=1;align=center;verticalAlign=top;childLayout=stackLayout;horizontal=1;startSize=26;horizontalStack=0;resizeParent=1;resizeParentMax=0;resizeLast=0;collapsible=1;marginBottom=0;whiteSpace=wrap;html=1;" parent="1" vertex="1">
          <mxGeometry x="145" y="110" width="160" height="116" as="geometry" />
        </mxCell>
        <mxCell id="GajuMI54rTQRxDon66kV-43" value="-characterBuilderSystem" style="text;strokeColor=none;fillColor=none;align=left;verticalAlign=top;spacingLeft=4;spacingRight=4;overflow=hidden;rotatable=0;points=[[0,0.5],[1,0.5]];portConstraint=eastwest;whiteSpace=wrap;html=1;" parent="GajuMI54rTQRxDon66kV-42" vertex="1">
          <mxGeometry y="26" width="160" height="26" as="geometry" />
        </mxCell>
        <mxCell id="GajuMI54rTQRxDon66kV-44" value="" style="line;strokeWidth=1;fillColor=none;align=left;verticalAlign=middle;spacingTop=-1;spacingLeft=3;spacingRight=3;rotatable=0;labelPosition=right;points=[];portConstraint=eastwest;strokeColor=inherit;" parent="GajuMI54rTQRxDon66kV-42" vertex="1">
          <mxGeometry y="52" width="160" height="8" as="geometry" />
        </mxCell>
        <mxCell id="GajuMI54rTQRxDon66kV-45" value="+CreateSolider()" style="text;strokeColor=none;fillColor=none;align=left;verticalAlign=top;spacingLeft=4;spacingRight=4;overflow=hidden;rotatable=0;points=[[0,0.5],[1,0.5]];portConstraint=eastwest;whiteSpace=wrap;html=1;" parent="GajuMI54rTQRxDon66kV-42" vertex="1">
          <mxGeometry y="60" width="160" height="26" as="geometry" />
        </mxCell>
        <mxCell id="GajuMI54rTQRxDon66kV-46" value="+CreateEnemy()" style="text;html=1;strokeColor=none;fillColor=none;align=left;verticalAlign=middle;whiteSpace=wrap;rounded=0;spacingLeft=4;spacingRight=4;" parent="GajuMI54rTQRxDon66kV-42" vertex="1">
          <mxGeometry y="86" width="160" height="30" as="geometry" />
        </mxCell>
        <mxCell id="GajuMI54rTQRxDon66kV-47" style="edgeStyle=none;rounded=0;orthogonalLoop=1;jettySize=auto;html=1;exitX=0.5;exitY=1;exitDx=0;exitDy=0;entryX=0.5;entryY=0;entryDx=0;entryDy=0;endArrow=open;endFill=0;" parent="1" source="GajuMI54rTQRxDon66kV-46" target="GajuMI54rTQRxDon66kV-30" edge="1">
          <mxGeometry relative="1" as="geometry" />
        </mxCell>
      </root>
    </mxGraphModel>
  </diagram>
</mxfile>
